<?xml version="1.0" encoding="UTF-8" standalone="no"?>
<!-- Created with Inkscape (http://www.inkscape.org/) -->

<svg
   width="136.29225mm"
   height="23.031836mm"
   viewBox="0 0 136.29225 23.031836"
   version="1.1"
   id="svg1"
   inkscape:version="1.3.2 (091e20e, 2023-11-25, custom)"
   sodipodi:docname="docker-tag-monitor-black.svg"
   xmlns:inkscape="http://www.inkscape.org/namespaces/inkscape"
   xmlns:sodipodi="http://sodipodi.sourceforge.net/DTD/sodipodi-0.dtd"
   xmlns="http://www.w3.org/2000/svg"
   xmlns:svg="http://www.w3.org/2000/svg">
  <sodipodi:namedview
     id="namedview1"
     pagecolor="#ffffff"
     bordercolor="#000000"
     borderopacity="0.25"
     inkscape:showpageshadow="2"
     inkscape:pageopacity="0.0"
     inkscape:pagecheckerboard="true"
     inkscape:deskcolor="#d1d1d1"
     inkscape:document-units="mm"
     inkscape:zoom="1.0255231"
     inkscape:cx="208.18644"
     inkscape:cy="-46.805382"
     inkscape:window-width="1920"
     inkscape:window-height="1010"
     inkscape:window-x="-6"
     inkscape:window-y="-6"
     inkscape:window-maximized="1"
     inkscape:current-layer="layer1" />
  <defs
     id="defs1" />
  <g
     inkscape:label="Layer 1"
     inkscape:groupmode="layer"
     id="layer1"
     transform="translate(-11.347683,-88.177145)">
    <path
       style="font-weight:bold;font-size:12.2208px;font-family:Inter;-inkscape-font-specification:Inter;stroke-width:0.814723;paint-order:markers fill stroke"
       d="m 41.198422,102.88849 h -2.297367 v -1.5455 h 2.201892 q 0.895078,0 1.479863,-0.33417 0.584784,-0.34013 0.871209,-0.98458 0.286425,-0.650425 0.286425,-1.587273 0,-0.936849 -0.286425,-1.581305 -0.286425,-0.644456 -0.871209,-0.978619 -0.578817,-0.334162 -1.461961,-0.334162 h -2.261564 v -1.545502 h 2.37494 q 1.33665,0 2.315269,0.543014 0.978619,0.537047 1.509699,1.533567 0.531079,0.996521 0.531079,2.363007 0,1.366486 -0.531079,2.368973 -0.53108,0.99652 -1.515666,1.53953 -0.978619,0.54302 -2.345105,0.54302 z m -1.300847,-8.891111 v 8.891111 h -1.837894 v -8.891111 z m 9.61314,9.034321 q -0.948783,0 -1.670812,-0.41173 -0.72203,-0.41174 -1.127799,-1.15167 -0.399802,-0.73993 -0.399802,-1.724519 0,-0.990553 0.399802,-1.730485 0.405769,-0.739931 1.127799,-1.151667 0.722029,-0.417703 1.670812,-0.417703 0.960717,0 1.67678,0.417703 0.72203,0.411736 1.121831,1.151667 0.405769,0.739932 0.405769,1.730485 0,0.984589 -0.405769,1.724519 -0.399801,0.73993 -1.121831,1.15167 -0.716063,0.41173 -1.67678,0.41173 z m 0,-1.42616 q 0.429638,0 0.751866,-0.22078 0.322228,-0.22676 0.501244,-0.64446 0.179015,-0.4177 0.179015,-0.996519 0,-0.590752 -0.179015,-1.008455 -0.179016,-0.417703 -0.501244,-0.638489 -0.322228,-0.226753 -0.751866,-0.226753 -0.42367,0 -0.745898,0.226753 -0.322229,0.220786 -0.501244,0.638489 -0.179016,0.417703 -0.179016,1.008455 0,0.584789 0.179016,1.002489 0.179015,0.41173 0.501244,0.63849 0.322228,0.22078 0.745898,0.22078 z m 7.059183,1.42616 q -0.942816,0 -1.658878,-0.41173 -0.710096,-0.41771 -1.109897,-1.15764 -0.393835,-0.7459 -0.393835,-1.718549 0,-0.978619 0.393835,-1.71855 0.399801,-0.745899 1.109897,-1.163602 0.716062,-0.417703 1.658878,-0.417703 0.620587,0 1.1457,0.184983 0.525112,0.179016 0.91298,0.513178 0.393834,0.334163 0.626554,0.793636 0.232721,0.453506 0.274491,1.008455 h -1.700648 q -0.0358,-0.244655 -0.137246,-0.441572 -0.09548,-0.196917 -0.250622,-0.34013 -0.155147,-0.143212 -0.369965,-0.220786 -0.208852,-0.07757 -0.477375,-0.07757 -0.441572,0 -0.757833,0.23272 -0.316261,0.226753 -0.48931,0.650424 -0.167081,0.417703 -0.167081,0.99652 0,0.572849 0.167081,0.990549 0.173049,0.41771 0.48931,0.65043 0.316261,0.22675 0.757833,0.22675 0.268523,0 0.477375,-0.0776 0.208851,-0.0776 0.358031,-0.22079 0.155147,-0.14321 0.250622,-0.34013 0.09548,-0.20288 0.137245,-0.4535 h 1.712583 q -0.02984,0.54898 -0.262556,1.00845 -0.226753,0.45351 -0.620588,0.79364 -0.393834,0.34013 -0.924914,0.52511 -0.525112,0.18498 -1.151667,0.18498 z m 5.489813,-1.95724 v -2.076578 h 0.184983 l 2.207859,-2.410743 H 66.5172 l -2.858283,3.168576 h -0.405769 z m -1.593239,1.81403 v -8.891111 h 1.76032 v 8.891111 z m 4.123327,0 -1.993041,-2.74491 1.163601,-1.223271 2.888119,3.968181 z m 5.203386,0.14321 q -0.95475,0 -1.664845,-0.4177 -0.704128,-0.42367 -1.097962,-1.16957 -0.387868,-0.7459 -0.387868,-1.700649 0,-0.966685 0.393835,-1.706616 0.399801,-0.745898 1.097962,-1.169569 0.698161,-0.42367 1.599207,-0.42367 0.69816,0 1.265043,0.238688 0.566883,0.23272 0.978619,0.674292 0.411736,0.435604 0.632522,1.032323 0.226753,0.596719 0.226753,1.318749 v 0.471412 h -5.567386 v -1.121836 h 4.720045 l -0.793635,0.268524 q 0,-0.477375 -0.173049,-0.823472 -0.173048,-0.346097 -0.495277,-0.53108 -0.31626,-0.19095 -0.757832,-0.19095 -0.435605,0 -0.751866,0.19095 -0.316261,0.184983 -0.489309,0.53108 -0.173049,0.346097 -0.173049,0.823472 v 0.763802 q 0,0.48931 0.173049,0.85927 0.179015,0.364 0.513178,0.56689 0.334162,0.19691 0.80557,0.19691 0.346097,0 0.608653,-0.0955 0.268524,-0.10144 0.447539,-0.28046 0.184983,-0.18498 0.262557,-0.42964 h 1.605173 q -0.113376,0.62656 -0.53108,1.10393 -0.417703,0.47738 -1.050225,0.75187 -0.632522,0.26852 -1.396322,0.26852 z m 3.986082,-0.14321 v -6.301351 h 1.694682 v 1.074093 h 0.0179 q 0.173049,-0.566882 0.543014,-0.841373 0.369966,-0.274491 0.996521,-0.274491 0.155147,0 0.280458,0.006 0.131278,0 0.238687,0.006 v 1.497764 q -0.09547,-0.006 -0.316261,-0.0179 -0.214819,-0.01193 -0.441572,-0.01193 -0.358031,0 -0.644456,0.167081 -0.286425,0.161114 -0.447539,0.483342 -0.161114,0.322228 -0.161114,0.799603 v 3.413233 z m 6.826464,-7.315773 v -1.575338 h 7.226265 v 1.575338 h -2.691202 v 7.315773 H 83.3029 v -7.315773 z m 8.734773,7.423183 q -0.626555,0 -1.115864,-0.20885 -0.48931,-0.20885 -0.769767,-0.62656 -0.280458,-0.42367 -0.280458,-1.05022 0,-0.53108 0.196917,-0.88315 0.196917,-0.358028 0.537047,-0.572847 0.346097,-0.220786 0.787669,-0.334162 0.447539,-0.113377 0.936848,-0.155147 0.578817,-0.05967 0.918947,-0.113377 0.34013,-0.0537 0.489309,-0.155147 0.14918,-0.101442 0.14918,-0.304326 v -0.04177 q 0,-0.23272 -0.125311,-0.405768 -0.125311,-0.179016 -0.358031,-0.280458 -0.226753,-0.101442 -0.548981,-0.101442 -0.322228,0 -0.57285,0.101442 -0.244655,0.101442 -0.387868,0.286425 -0.143212,0.184983 -0.167081,0.429637 h -1.652911 q 0.04177,-0.650423 0.3819,-1.127798 0.346097,-0.477375 0.966685,-0.733964 0.620587,-0.262557 1.485829,-0.262557 0.644457,0 1.151668,0.14918 0.507211,0.143213 0.853307,0.42367 0.352064,0.280458 0.53108,0.68026 0.179016,0.399801 0.179016,0.907012 v 4.272508 h -1.71855 v -0.88911 h -0.02387 q -0.167081,0.31029 -0.411736,0.53108 -0.244655,0.22078 -0.596719,0.34609 -0.352064,0.11935 -0.835406,0.11935 z m 0.489309,-1.22328 q 0.423671,0 0.727997,-0.15514 0.310294,-0.15515 0.477375,-0.42367 0.167082,-0.26853 0.167082,-0.60866 v -0.632518 q -0.07757,0.04177 -0.202885,0.08354 -0.125311,0.0358 -0.292392,0.0716 -0.167081,0.0298 -0.363999,0.0656 -0.196917,0.0358 -0.405768,0.0656 -0.304327,0.0477 -0.548982,0.14918 -0.244654,0.0955 -0.387867,0.26255 -0.143212,0.16112 -0.143212,0.41174 0,0.22079 0.119343,0.3819 0.119344,0.16111 0.34013,0.24465 0.220786,0.0835 0.513178,0.0835 z m 7.315772,3.69369 q -0.895078,0 -1.521633,-0.25659 -0.620587,-0.25062 -0.978619,-0.71009 -0.352064,-0.45947 -0.441571,-1.07409 h 1.694681 q 0.06564,0.23868 0.23272,0.40576 0.173049,0.16709 0.429638,0.25063 0.256589,0.0895 0.584784,0.0895 0.644456,0 0.990553,-0.35206 0.352064,-0.35206 0.352064,-1.03232 v -0.96669 h -0.006 q -0.184983,0.36997 -0.465441,0.60866 -0.27449,0.23868 -0.632521,0.35206 -0.352064,0.11338 -0.7638,0.11338 -0.823472,0 -1.438093,-0.41174 -0.61462,-0.41174 -0.95475,-1.13377 -0.334162,-0.72203 -0.334162,-1.658874 0,-0.948783 0.340129,-1.67678 0.346097,-0.733964 0.954751,-1.1457 0.61462,-0.411736 1.42019,-0.411736 0.411736,0 0.757833,0.113377 0.352064,0.113377 0.632522,0.346097 0.286425,0.23272 0.483342,0.584784 h 0.006 v -0.912979 h 1.736448 v 6.056691 q 0,0.99652 -0.387863,1.61711 -0.387867,0.62656 -1.086028,0.91298 -0.692194,0.29239 -1.605174,0.29239 z m -0.07161,-3.98011 q 0.447539,0 0.775734,-0.22079 0.334163,-0.22675 0.519146,-0.63849 0.184982,-0.41173 0.184982,-0.960713 0,-0.548981 -0.184982,-0.95475 -0.184983,-0.411736 -0.519146,-0.632522 -0.328195,-0.226753 -0.775734,-0.226753 -0.42367,0 -0.739931,0.214819 -0.316261,0.208852 -0.495277,0.61462 -0.173048,0.405769 -0.173048,0.984586 0,0.578813 0.173048,0.984583 0.179016,0.40577 0.495277,0.62059 0.316261,0.21482 0.739931,0.21482 z m 7.059181,1.40229 v -8.891111 h 2.67927 l 1.46793,4.141228 q 0.0895,0.280458 0.21481,0.692194 0.12532,0.405769 0.25659,0.853308 0.13128,0.441571 0.23869,0.847341 0.11338,0.40577 0.18498,0.67429 h -0.45947 q 0.0716,-0.26852 0.17902,-0.67429 0.11337,-0.40577 0.24465,-0.847341 0.13128,-0.447539 0.25062,-0.853308 0.12531,-0.411736 0.20885,-0.692194 l 1.45003,-4.141228 h 2.67927 v 8.891111 h -1.80209 v -4.22477 q 0,-0.29836 0.0119,-0.710095 0.0119,-0.411736 0.0239,-0.877177 0.0119,-0.471408 0.0239,-0.948783 0.0119,-0.483342 0.0179,-0.91298 h 0.22079 q -0.13725,0.471408 -0.28643,0.966685 -0.14321,0.495276 -0.28046,0.960717 -0.13724,0.465441 -0.26255,0.859275 -0.11935,0.387867 -0.20885,0.662358 l -1.50374,4.22477 h -1.49179 l -1.52164,-4.22477 q -0.0895,-0.274491 -0.21481,-0.662358 -0.12531,-0.393834 -0.26853,-0.859275 -0.13724,-0.465441 -0.29239,-0.960717 -0.14918,-0.495277 -0.29239,-0.966685 h 0.26255 q 0.006,0.429638 0.0179,0.91298 0.0119,0.477375 0.0239,0.948783 0.0119,0.465441 0.0179,0.877177 0.0119,0.411735 0.0119,0.710095 v 4.22477 z m 13.80808,0.14321 q -0.94878,0 -1.67081,-0.41173 -0.72203,-0.41174 -1.1278,-1.15167 -0.3998,-0.73993 -0.3998,-1.724519 0,-0.990553 0.3998,-1.730485 0.40577,-0.739931 1.1278,-1.151667 0.72203,-0.417703 1.67081,-0.417703 0.96072,0 1.67678,0.417703 0.72203,0.411736 1.12183,1.151667 0.40577,0.739932 0.40577,1.730485 0,0.984589 -0.40577,1.724519 -0.3998,0.73993 -1.12183,1.15167 -0.71606,0.41173 -1.67678,0.41173 z m 0,-1.42616 q 0.42964,0 0.75186,-0.22078 0.32223,-0.22676 0.50125,-0.64446 0.17901,-0.4177 0.17901,-0.996519 0,-0.590752 -0.17901,-1.008455 -0.17902,-0.417703 -0.50125,-0.638489 -0.32222,-0.226753 -0.75186,-0.226753 -0.42367,0 -0.7459,0.226753 -0.32223,0.220786 -0.50124,0.638489 -0.17902,0.417703 -0.17902,1.008455 0,0.584789 0.17902,1.002489 0.17901,0.41173 0.50124,0.63849 0.32223,0.22078 0.7459,0.22078 z m 5.93138,-2.21979 v 3.50274 h -1.76032 v -6.301351 h 1.73049 v 1.640976 h -0.29836 q 0.29836,-0.835406 0.8533,-1.300847 0.55495,-0.471408 1.41423,-0.471408 0.67429,0 1.16957,0.292393 0.49527,0.286425 0.7638,0.841373 0.27449,0.554949 0.27449,1.354552 v 3.944312 h -1.75436 v -3.622084 q 0,-0.632522 -0.30432,-0.960717 -0.29836,-0.334163 -0.85331,-0.334163 -0.364,0 -0.64446,0.14918 -0.28045,0.149179 -0.4356,0.46544 -0.15515,0.310294 -0.15515,0.799604 z m 5.39434,3.50274 v -6.301351 h 1.76032 v 6.301351 z m 0.87717,-7.094987 q -0.4356,0 -0.72203,-0.262557 -0.28642,-0.268523 -0.28642,-0.674292 0,-0.405769 0.28642,-0.668325 0.28643,-0.268523 0.71607,-0.268523 0.4356,0 0.72203,0.268523 0.28642,0.262556 0.28642,0.668325 0,0.405769 -0.28642,0.674292 -0.28643,0.262557 -0.71607,0.262557 z m 5.83353,0.793636 v 1.37842 h -4.13526 v -1.37842 z m -3.04923,-1.71855 h 1.76032 v 6.074601 q 0,0.31626 0.12531,0.44157 0.13128,0.12531 0.48931,0.12531 0.14918,0 0.35207,0 0.20885,0 0.32222,0 v 1.37842 q -0.16111,0 -0.44754,0 -0.28642,0 -0.57881,0 -1.03829,0 -1.53357,-0.40577 -0.48931,-0.40577 -0.48931,-1.26504 z m 6.76917,8.163111 q -0.94878,0 -1.67081,-0.41173 -0.72203,-0.41174 -1.1278,-1.15167 -0.3998,-0.73993 -0.3998,-1.724519 0,-0.990553 0.3998,-1.730485 0.40577,-0.739931 1.1278,-1.151667 0.72203,-0.417703 1.67081,-0.417703 0.96072,0 1.67678,0.417703 0.72203,0.411736 1.12183,1.151667 0.40577,0.739932 0.40577,1.730485 0,0.984589 -0.40577,1.724519 -0.3998,0.73993 -1.12183,1.15167 -0.71606,0.41173 -1.67678,0.41173 z m 0,-1.42616 q 0.42964,0 0.75187,-0.22078 0.32222,-0.22676 0.50124,-0.64446 0.17902,-0.4177 0.17902,-0.996519 0,-0.590752 -0.17902,-1.008455 -0.17902,-0.417703 -0.50124,-0.638489 -0.32223,-0.226753 -0.75187,-0.226753 -0.42367,0 -0.7459,0.226753 -0.32223,0.220786 -0.50124,0.638489 -0.17902,0.417703 -0.17902,1.008455 0,0.584789 0.17902,1.002489 0.17901,0.41173 0.50124,0.63849 0.32223,0.22078 0.7459,0.22078 z m 4.17106,1.28295 v -6.301351 h 1.69469 v 1.074093 h 0.0179 q 0.17305,-0.566882 0.54301,-0.841373 0.36997,-0.274491 0.99652,-0.274491 0.15515,0 0.28046,0.006 0.13128,0 0.23869,0.006 v 1.497764 q -0.0955,-0.006 -0.31626,-0.0179 -0.21482,-0.01193 -0.44158,-0.01193 -0.35803,0 -0.64445,0.167081 -0.28643,0.161114 -0.44754,0.483342 -0.16111,0.322228 -0.16111,0.799603 v 3.413233 z"
       id="text1"
       aria-label="Docker Tag Monitor" />
    <path
       d="m 34.110714,109.57688 -2.43856,-2.43856 c 0.49923,-0.75844 0.79685,-1.6705 0.79685,-2.64976 0,-2.64977 -2.15053,-4.800295 -4.8003,-4.800295 -2.64976,0 -4.8003,2.150525 -4.8003,4.800295 0,2.64976 2.15054,4.8003 4.8003,4.8003 0.97926,0 1.89132,-0.29762 2.64977,-0.79685 l 2.43855,2.43855 c 0.19201,0.19201 0.43203,0.27842 0.68164,0.27842 0.24962,0 0.48964,-0.096 0.68165,-0.27842 0.37442,-0.37442 0.37442,-0.97926 0,-1.35368 z m -9.32219,-5.07872 c 0,-1.5841 1.29608,-2.88018 2.88018,-2.88018 1.5841,0 2.88018,1.29608 2.88018,2.88018 0,1.5841 -1.29608,2.88018 -2.88018,2.88018 -1.5841,0 -2.88018,-1.29608 -2.88018,-2.88018 z m -2.88018,3.84024 c 0,0.52803 -0.43203,0.96006 -0.96006,0.96006 h -4.8003 c -2.649766,0 -4.800301,-2.15053 -4.800301,-4.8003 V 92.977445 c 0,-2.64977 2.150535,-4.8003 4.800301,-4.8003 h 11.52072 c 2.64977,0 4.8003,2.15053 4.8003,4.8003 v 4.8003 c 0,0.52803 -0.43202,0.96006 -0.96006,0.96006 -0.52803,0 -0.96006,-0.43203 -0.96006,-0.96006 v -4.8003 c 0,-1.5841 -1.29608,-2.88018 -2.88018,-2.88018 h -11.52072 c -1.584099,0 -2.88018,1.29608 -2.88018,2.88018 v 11.520715 c 0,1.5841 1.296081,2.88018 2.88018,2.88018 h 4.8003 c 0.52803,0 0.96006,0.43203 0.96006,0.96006 z"
       id="path1"
       style="stroke-width:0.960059"
       sodipodi:nodetypes="ccsssscsscccssssssssssssssssssssssss" />
    <path
       d="m 15.746359,96.79667 4.085426,-4.085423 4.287184,0.586048 0.473436,4.280609 -4.229005,4.228546 c -0.244458,0.24445 -0.569153,0.37912 -0.914963,0.37912 -0.345809,0 -0.670971,-0.13467 -0.920596,-0.38429 l -2.929754,-3.025941 c -0.959611,-0.739193 -0.47229,-1.284005 0.148272,-1.978669 z m 6.477964,-1.180067 c 0.259005,0 0.469213,-0.210208 0.469213,-0.469215 0,-0.258995 -0.210208,-0.469202 -0.469213,-0.469202 -0.259004,0 -0.469213,0.210207 -0.469213,0.469202 0,0.259007 0.210209,0.469215 0.469213,0.469215 z"
       id="path1-9"
       style="stroke-width:0.469213"
       sodipodi:nodetypes="cccccscccsssss" />
  </g>
</svg>
